HIERARCHY
ROOT Hips
{
	OFFSET 0 0 0
	CHANNELS 6 Xposition Yposition Zposition Yrotation Xrotation Zrotation
	JOINT Spine
	{
		OFFSET -0 8.37147 -2.66841
		CHANNELS 3 Yrotation Xrotation Zrotation
		JOINT Spine1
		{
			OFFSET -0 8.81736 0
			CHANNELS 3 Yrotation Xrotation Zrotation
			JOINT Spine2
			{
				OFFSET -0 8.81736 0
				CHANNELS 3 Yrotation Xrotation Zrotation
				JOINT Spine3
				{
					OFFSET -0 8.81736 0
					CHANNELS 3 Yrotation Xrotation Zrotation
					JOINT Neck
					{
						OFFSET -0 20.2165 3.66841
						CHANNELS 3 Yrotation Xrotation Zrotation
						JOINT Head
						{
							OFFSET -0 10.4643 0
							CHANNELS 3 Yrotation Xrotation Zrotation
							End Site
							{
								OFFSET 0 15 0
							}
						}
					}
					JOINT LeftShoulder
					{
						OFFSET 1.74406 7.24 3.48811
						CHANNELS 3 Yrotation Xrotation Zrotation
						JOINT LeftArm
						{
							OFFSET 15.166 0 0
							CHANNELS 3 Yrotation Xrotation Zrotation
							JOINT LeftForeArm
							{
								OFFSET 25.1836 0 0
								CHANNELS 3 Yrotation Xrotation Zrotation
								JOINT LeftHand
								{
									OFFSET 23.8595 0 0
									CHANNELS 3 Yrotation Xrotation Zrotation
									End Site
									{
										OFFSET 15 0 0
									}
								}
							}
						}
					}
					JOINT RightShoulder
					{
						OFFSET -1.74406 7.24 3.48811
						CHANNELS 3 Yrotation Xrotation Zrotation
						JOINT RightArm
						{
							OFFSET -15.166 0 0
							CHANNELS 3 Yrotation Xrotation Zrotation
							JOINT RightForeArm
							{
								OFFSET -25.1836 0 0
								CHANNELS 3 Yrotation Xrotation Zrotation
								JOINT RightHand
								{
									OFFSET -23.8595 0 0
									CHANNELS 3 Yrotation Xrotation Zrotation
									End Site
									{
										OFFSET -15 0 0
									}
								}
							}
						}
					}
				}
			}
		}
	}
	JOINT LeftUpLeg
	{
		OFFSET 10.4643 -3.48811 2
		CHANNELS 3 Yrotation Xrotation Zrotation
		JOINT LeftLeg
		{
			OFFSET -0 -38.892 2.44168
			CHANNELS 3 Yrotation Xrotation Zrotation
			JOINT LeftFoot
			{
				OFFSET -0 -41.3956 -2.44168
				CHANNELS 3 Yrotation Xrotation Zrotation
				JOINT LeftToeBase
				{
					OFFSET -0 -6.7338 15.6965
					CHANNELS 3 Yrotation Xrotation Zrotation
					End Site
					{
						OFFSET 0 0 5
					}
				}
			}
		}
	}
	JOINT RightUpLeg
	{
		OFFSET -10.4643 -3.48811 2
		CHANNELS 3 Yrotation Xrotation Zrotation
		JOINT RightLeg
		{
			OFFSET -0 -38.892 2.44168
			CHANNELS 3 Yrotation Xrotation Zrotation
			JOINT RightFoot
			{
				OFFSET -0 -41.3956 -2.44168
				CHANNELS 3 Yrotation Xrotation Zrotation
				JOINT RightToeBase
				{
					OFFSET -0 -6.7338 15.6965
					CHANNELS 3 Yrotation Xrotation Zrotation
					End Site
					{
						OFFSET 0 0 5
					}
				}
			}
		}
	}
}
MOTION
Frames: 8
Frame Time: 0.00833333
-66.049774 87.151733 -28.232837 -64.431345 2.091176 -2.054872 -1.796979 4.956612 0.213411 -1.867169 3.285300 0.116172 -1.772378 1.229480 0.121621 -1.805945 -0.456127 0.080223 9.477046 15.792717 7.610841 4.092363 -11.106551 -9.379317 -2.821748 1.286353 11.327195 -37.049646 -11.477076 -2.154856 -110.726168 -1.041903 6.459370 0.010625 -11.587666 6.947770 -1.462368 0.647799 -15.401752 62.426925 -12.009785 -0.983047 97.037559 -0.476006 -10.271413 1.204657 6.058363 33.505351 19.595425 0.645238 -9.539055 0.000000 27.986311 0.000000 21.976469 -24.984862 0.622762 0.000000 -6.306053 0.000000 -20.861153 -24.933084 15.534895 0.000000 33.667026 0.000000 -13.330220 -7.737988 -9.704345 0.000000 -3.709590 0.000000
-66.160791 87.181555 -28.143268 -64.483194 2.211581 -2.155714 -1.714221 5.086349 0.275207 -1.848677 3.016619 0.096033 -2.016449 1.116881 0.041098 -1.896242 -0.813944 0.476813 9.951257 14.636742 7.727395 4.477534 -11.510786 -10.277564 -3.622026 0.724737 11.952082 -35.519308 -12.582540 -0.106170 -110.078626 0.134514 9.072230 -1.550059 -12.769608 7.161434 -0.233725 0.021144 -16.174502 60.296202 -13.454941 -3.317119 97.193651 -0.276811 -12.290713 2.286157 4.536857 33.079543 19.448810 0.642060 -9.511485 0.000000 27.824174 0.000000 22.162159 -24.927990 0.546393 0.000000 -6.365058 0.000000 -21.030758 -24.855404 15.643122 0.000000 33.589881 0.000000 -13.108669 -7.729966 -9.805923 0.000000 -3.649106 0.000000
-66.299866 87.224951 -28.053549 -64.611485 2.352511 -2.234861 -1.742306 4.981753 0.279790 -1.847828 3.030666 0.135953 -2.014066 0.856170 0.117011 -1.937574 -1.057059 0.494259 10.415545 13.377941 8.041298 4.905270 -11.887796 -11.309658 -4.693409 0.094370 12.757985 -33.787712 -13.719957 1.703155 -109.116456 1.274638 11.599175 -2.843851 -14.314929 6.312005 0.921581 -0.320679 -16.574685 58.297436 -14.976564 -6.050561 96.486934 -0.154761 -13.856718 4.680418 2.301337 32.786258 19.451344 0.702291 -9.480888 0.000000 27.569306 0.000000 22.257462 -24.846220 0.554914 0.000000 -6.406596 0.000000 -21.140484 -24.759917 15.742086 0.000000 33.471109 0.000000 -12.891382 -7.721387 -9.802329 0.000000 -3.640054 0.000000
-66.422650 87.273676 -27.965219 -64.633124 2.482696 -2.357824 -1.804319 4.921080 0.408956 -1.952395 2.915028 0.114937 -1.814213 0.721096 -0.074525 -1.580562 -0.953366 0.596275 10.472574 11.430419 8.857407 5.263859 -11.961217 -12.721355 -6.018224 -0.479931 14.154651 -32.561354 -15.089308 3.144409 -107.266359 2.894637 14.359128 -4.659667 -17.647621 4.615949 1.689118 -0.953539 -17.210278 55.928235 -17.088209 -8.290422 96.275346 -0.636737 -14.810810 5.698117 -0.012400 32.647184 19.315467 0.744054 -9.416195 0.000000 27.315352 0.000000 22.377323 -24.782178 0.529367 0.000000 -6.419313 0.000000 -21.360819 -24.614608 15.873796 0.000000 33.315483 0.000000 -12.675527 -7.697046 -9.850767 0.000000 -3.614489 0.000000
-66.555139 87.339752 -27.884991 -64.659693 2.685592 -2.475882 -1.909446 4.788863 0.392283 -1.953284 2.801364 0.155117 -1.583199 0.692616 0.038218 -1.386716 -0.915404 0.562744 10.408653 9.389162 9.193391 5.603631 -12.052519 -13.627545 -7.093560 -1.099361 15.347268 -31.610715 -16.236855 4.558256 -105.120263 4.433862 16.851834 -5.555261 -20.419049 3.163764 2.420418 -1.693601 -17.896261 53.902359 -18.847614 -10.420986 95.713931 -1.345773 -15.480335 6.969339 -1.494047 32.982729 19.091414 0.738329 -9.394613 0.000000 26.974188 0.000000 22.587798 -24.668713 0.548784 0.000000 -6.467177 0.000000 -21.511631 -24.523060 16.013552 0.000000 33.105886 0.000000 -12.505865 -7.668074 -9.787789 0.000000 -3.556690 0.000000
-66.681238 87.412097 -27.792493 -64.741044 2.868356 -2.551887 -1.960242 4.624962 0.446014 -1.968490 2.695432 0.159421 -1.394354 0.734976 -0.022487 -1.076557 -0.853714 0.617550 10.242118 7.344120 9.589713 5.946580 -12.140237 -14.541374 -8.085070 -1.622331 16.581133 -30.798009 -17.414958 5.712131 -102.887246 5.682194 19.193789 -6.265475 -22.306494 2.481610 3.172999 -2.540877 -18.950711 51.760011 -20.579173 -11.797991 95.187441 -1.412475 -16.151947 7.558173 -3.085295 33.328285 18.931022 0.801561 -9.401985 0.000000 26.587395 0.000000 22.771892 -24.541451 0.492527 0.000000 -6.421714 0.000000 -21.602364 -24.419457 16.100743 0.000000 32.869467 0.000000 -12.320927 -7.619826 -9.818882 0.000000 -3.533557 0.000000
-66.816327 87.492706 -27.678967 -64.840301 3.036398 -2.636066 -2.079865 4.558461 0.545958 -2.001309 2.572934 0.243430 -1.107583 0.666877 0.054410 -0.875177 -0.804640 0.357613 10.103305 5.347059 9.876693 6.327284 -12.243532 -15.395576 -9.066389 -2.157080 17.689345 -29.929072 -18.560854 6.892278 -100.881604 5.894224 21.073803 -7.017162 -21.942388 1.542572 3.915157 -3.664515 -19.990808 49.816878 -21.749617 -12.639938 94.502159 -1.108358 -16.845883 8.135379 -3.161140 33.093723 18.896924 0.935338 -9.374019 0.000000 26.136201 0.000000 22.827363 -24.354325 0.487291 0.000000 -6.618014 0.000000 -21.624143 -24.304627 16.166095 0.000000 32.631053 0.000000 -12.175255 -7.613614 -9.772985 0.000000 -3.412027 0.000000
-66.943256 87.587366 -27.584717 -64.916905 3.238020 -2.755609 -2.205481 4.478099 0.557362 -1.963673 2.496932 0.354048 -0.961869 0.602238 0.275437 -0.757927 -0.896220 0.234413 10.036159 3.576684 9.793938 6.648123 -12.332618 -15.729443 -9.736457 -2.761382 18.536511 -29.272297 -19.271957 7.799440 -98.862475 6.304030 22.871107 -7.912252 -21.642306 1.356063 4.599790 -4.387767 -21.004292 48.281167 -22.754627 -13.695263 93.865421 -1.221559 -17.639229 8.085716 -2.473471 32.755415 18.842348 1.011939 -9.314089 0.000000 25.682291 0.000000 22.883731 -24.169558 0.456839 0.000000 -6.648483 0.000000 -21.627846 -24.160368 16.279715 0.000000 32.269047 0.000000 -12.081112 -7.510572 -9.774565 0.000000 -3.449854 0.000000
